# xmcd
#
# Track frame offsets:
#	150
#	23562
#	45620
#	77712
#	107777
#	135380
#	166997
#	199565
#	225350
#	254830
#
# Disc length: 3890 seconds
#
# Revision: 1
# Processed by: cddbd v1.5.2PL0 Copyright (c) Steve Scherf et al.
# Submitted via: audiograbber 1.83.01
#
DISCID=760f300a
DTITLE=Fusanosuke Kondou - 7th ALBUM PAPA GORDON and BABY FUSA "rough mixed~Liv
DTITLE=e at SHINJUKU LIQUID Room"
DYEAR=1996
DGENRE=R&B
TTITLE0=Way Back Home
TTITLE1=So Excited
TTITLE2=Reconsider Baby
TTITLE3=Let Me Down Easy
TTITLE4=Tobacco Road
TTITLE5=Get Out of MY Life,Woman
TTITLE6=Me
TTITLE7=Double Trouble
TTITLE8=One Way Out
TTITLE9=Linda Lou
EXTD=
EXTT0=
EXTT1=
EXTT2=
EXTT3=
EXTT4=
EXTT5=
EXTT6=
EXTT7=
EXTT8=
EXTT9=
PLAYORDER=
